<?xml version="1.0" encoding="utf-8"?>
<!-- Generator: Adobe Illustrator 27.9.0, SVG Export Plug-In . SVG Version: 6.00 Build 0)  -->
<svg version="1.1" id="Layer_1" xmlns="http://www.w3.org/2000/svg" xmlns:xlink="http://www.w3.org/1999/xlink" x="0px" y="0px"
	 viewBox="0 0 50.3 51" style="enable-background:new 0 0 50.3 51;" xml:space="preserve">
<style type="text/css">
	.st0{fill:#54EA54;}
</style>
<path class="st0" d="M24.8,0.3c-6.6,0.1-13,2.8-17.6,7.5C2.5,12.6,0,19,0,25.6c0,6.6,2.7,13,7.4,17.7c4.7,4.7,11.1,7.3,17.7,7.3
	s13-2.6,17.7-7.3c4.7-4.7,7.4-11,7.4-17.7c0-6.6-2.5-13-7.2-17.8c-4.7-4.7-11-7.5-17.6-7.5H24.8z"/>
<path d="M39,14.4l0-0.5l-0.5-0.1c-1.5-0.4-3.1-0.4-4.6-0.1c-1.5,0.3-2.9,1-4.1,2.1c-2.3,2-3.6,4.9-3.4,7.9c-0.2,0.2-0.4,0.5-0.5,0.7
	c0-2.7-0.9-5.5-2.5-7.7c-2.5-3.4-6.6-5.4-10.8-5.3l-0.5,0l-0.2,0.5c-1.3,4-0.7,8.5,1.9,11.9c2.2,3,5.6,4.9,9.2,5.3
	c0.1,0.7,0,1.3-0.2,2.1c-0.1,0.5-0.2,1-0.3,1.5l0,0.2c-0.1,0.4-0.1,0.7-0.2,1.1c-0.6-0.8-1.3-1.5-2.2-1.9c-0.8-0.4-1.8-0.7-2.7-0.7
	c-1,0-2,0.2-2.8,0.7l-0.5,0.3l0.1,0.5c0.1,1,0.5,1.9,1.1,2.7c0.6,0.8,1.3,1.4,2.2,1.9c0.8,0.4,1.8,0.7,2.7,0.7c0.7,0,1.4-0.1,2-0.3
	c0.1,3.6,0.9,6.2,0.9,6.3c0,0.1,0.1,0.2,0.1,0.2c0,0,0,0,0,0l0,0c0.1,0.1,0.2,0.2,0.4,0.3c0.2,0,0.3,0,0.5,0
	c0.2-0.1,0.4-0.2,0.4-0.4c0.1-0.2,0.1-0.4,0-0.6c0,0,0-0.1-0.1-0.2c0,0,0,0,0,0c0-0.1,0-0.2-0.1-0.3l0-0.1l0-0.1c0,0,0-0.1,0-0.1
	l0-0.1c0-0.1,0-0.1,0-0.2l0-0.1c-0.3-1.5-0.8-4.5-0.4-8l0-0.1c0-0.1,0-0.3,0.1-0.4l0-0.1c0-0.2,0-0.3,0.1-0.5l0,0
	c0.1-0.6,0.2-1.1,0.4-1.7c0-0.1,0-0.1,0-0.2c0.2-0.8,0.5-1.5,0.8-2.3l0.1,0l0.2-0.5l0,0c0.6-1.3,1.3-2.6,2.2-3.8
	c0.7,0.1,1.3,0.2,2,0.2c2.3,0,4.5-0.8,6.3-2.3C38,20.7,39.3,17.6,39,14.4z M14.8,22.8c-2.1-2.9-2.8-6.6-1.8-10
	c3.5,0.1,6.9,1.8,9,4.7c2,2.7,2.7,6.2,1.9,9.5c-0.6-1.7-1.9-3.4-3.5-5.5c-0.7-0.8-1.4-1.8-2.2-2.9c-0.1-0.2-0.3-0.3-0.5-0.3
	c-0.2,0-0.4,0-0.6,0.1c-0.2,0.1-0.3,0.3-0.3,0.5c0,0.2,0,0.4,0.1,0.6c0.8,1.1,1.5,2,2.2,2.9c1.5,2,2.6,3.4,3.2,4.9
	C19.3,27,16.6,25.3,14.8,22.8z M19.8,36.4c-0.7,0-1.4-0.2-2-0.5c-0.6-0.3-1-0.7-1.4-1.2c-0.4-0.5-0.7-1-0.8-1.6
	c0.5-0.2,1-0.3,1.6-0.3c0.7,0,1.4,0.2,2,0.5c0.6,0.3,1,0.7,1.4,1.2c0.4,0.5,0.7,1,0.8,1.6C20.9,36.3,20.3,36.4,19.8,36.4z
	 M34.6,21.5c-1.5,1.2-3.3,1.9-5.3,1.9c-0.3,0-0.6,0-0.9,0c1.3-1.4,2.9-2.7,4.8-3.8c0.2-0.1,0.3-0.3,0.3-0.5s0-0.4-0.1-0.6
	c-0.1-0.2-0.3-0.3-0.5-0.3c-0.2-0.1-0.4,0-0.6,0.1c-1.8,1.1-3.3,2.3-4.6,3.6c0.3-1.9,1.3-3.6,2.8-4.9c0.9-0.8,2-1.4,3.2-1.7
	c1.2-0.3,2.4-0.4,3.6-0.1C37.6,17.6,36.5,20,34.6,21.5z"/>
</svg>
