<svg width="220" height="51" viewBox="0 0 220 51" fill="none" xmlns="http://www.w3.org/2000/svg">
<path d="M24.8391 0C18.1942 0.0853783 11.8528 2.79597 7.19928 7.54009C2.54571 12.2842 -0.0421702 18.6766 0.000519897 25.322C0.0432099 31.9673 2.713 38.326 7.42714 43.0099C12.1413 47.6939 18.5169 50.3227 25.1624 50.3227C31.8079 50.3227 38.1835 47.6939 42.8977 43.0099C47.6118 38.326 50.2816 31.9673 50.3243 25.322C50.367 18.6766 47.7791 12.2842 43.1255 7.54009C38.472 2.79597 32.1306 0.0853783 25.4857 0L24.8391 0Z" fill="#54EA54"/>
<path d="M39.0451 14.125L38.9983 13.581L38.4702 13.4433C36.9596 13.0475 35.376 13.0203 33.8528 13.3641C32.3295 13.7079 30.9111 14.4126 29.717 15.4189C27.3929 17.3796 26.1239 20.3234 26.272 23.3535C26.0896 23.5852 25.9123 23.8208 25.7402 24.0602C25.7313 21.3172 24.8693 18.6064 23.209 16.3456C20.7046 12.9338 16.6482 10.9223 12.3952 11.0023L11.8492 11.0119L11.6763 11.5301C10.3267 15.5686 11.0224 20.0243 13.537 23.4481C15.7251 26.4285 19.0988 28.3354 22.7513 28.7188C22.8117 29.3723 22.7532 30.0534 22.5554 30.8019C22.4258 31.2973 22.3138 31.7972 22.2195 32.3006L22.187 32.4755C22.1191 32.8448 22.0604 33.2158 22.0111 33.5881C21.4449 32.7673 20.6841 32.0997 19.7968 31.645C18.948 31.2119 18.009 30.9853 17.0561 30.9835C16.0796 30.9835 15.105 31.2241 14.2384 31.6795L13.7551 31.9338L13.8324 32.4738C13.9699 33.431 14.3348 34.3412 14.8966 35.1283C15.4583 35.9153 16.2006 36.5562 17.0611 36.9973C17.9102 37.4308 18.8497 37.6577 19.8031 37.6595C20.4845 37.6595 21.1643 37.5396 21.8079 37.3139C21.8813 40.9611 22.7031 43.5262 22.7473 43.66C22.7751 43.745 22.8166 43.821 22.8678 43.8884C22.8684 43.889 22.8691 43.8913 22.8697 43.8917L22.8701 43.8913C22.9676 44.0176 23.1017 44.1106 23.2541 44.1577C23.4065 44.2047 23.5698 44.2035 23.7215 44.1542C23.9163 44.0907 24.0779 43.9523 24.1707 43.7696C24.2636 43.587 24.2801 43.3749 24.2167 43.18C24.215 43.1751 24.1945 43.1103 24.1603 42.9908C24.1599 42.9898 24.1593 42.9885 24.1593 42.9872C24.1377 42.9112 24.1101 42.8113 24.0793 42.6928L24.059 42.6158L24.0391 42.5378C24.0302 42.5011 24.0211 42.4645 24.0119 42.4279L23.9943 42.3535C23.9822 42.3033 23.9704 42.2529 23.9588 42.2025L23.9458 42.1464C23.6023 40.6398 23.1004 37.6336 23.5007 34.1391L23.518 33.9947C23.5353 33.852 23.5535 33.7089 23.5744 33.5645L23.5927 33.4374C23.6162 33.2787 23.6411 33.1194 23.6687 32.9594L23.6767 32.9123C23.7742 32.348 23.8974 31.7748 24.0497 31.1959C24.0633 31.1448 24.074 31.0947 24.0866 31.0442C24.2926 30.2755 24.5463 29.5204 24.846 28.7831L24.8961 28.7822L25.0691 28.264L25.0744 28.2464C25.6685 26.9112 26.4208 25.6521 27.3149 24.496C27.9807 24.6368 28.6605 24.7118 29.3419 24.7118C31.6387 24.7101 33.8615 23.8977 35.618 22.4178C38.035 20.3812 39.3159 17.2806 39.0451 14.125ZM14.7834 22.5337C12.675 19.6629 12.0165 15.9699 12.9794 12.5514C16.5257 12.6573 19.8635 14.4005 21.9633 17.2607C23.9764 20.0018 24.6641 23.4916 23.8844 26.777C23.2422 25.0294 21.951 23.3615 20.3541 21.2989C19.6985 20.4525 18.9564 19.4939 18.189 18.4374C18.0685 18.2716 17.8871 18.1603 17.6847 18.1282C17.4823 18.0961 17.2754 18.1457 17.1095 18.2661C16.9437 18.3866 16.8325 18.5679 16.8003 18.7704C16.7682 18.9728 16.8178 19.1797 16.9383 19.3455C17.7196 20.4213 18.4694 21.3902 19.1313 22.2452C20.6439 24.1986 21.778 25.6664 22.3533 27.1106C19.348 26.6466 16.6014 25.0095 14.7834 22.5337ZM19.8044 36.1137C19.0915 36.1137 18.4054 35.9477 17.7657 35.6208C17.2114 35.3368 16.7221 34.9407 16.3287 34.4578C15.9354 33.9748 15.6467 33.4154 15.4808 32.815C15.9851 32.627 16.5189 32.5305 17.0571 32.5299C17.7691 32.5299 18.4548 32.6955 19.0944 33.0222C19.6489 33.3064 20.1383 33.7026 20.5318 34.1857C20.9252 34.6688 21.2141 35.2284 21.3801 35.8289C20.8759 36.0165 20.3424 36.113 19.8044 36.1137ZM34.6225 21.2362C33.1451 22.4813 31.2754 23.1648 29.3433 23.166C29.0568 23.166 28.7704 23.1494 28.4856 23.1195C29.8289 21.6823 31.4311 20.3971 33.2922 19.2699C33.4608 19.1605 33.5802 18.9898 33.6251 18.7939C33.67 18.598 33.6369 18.3923 33.5327 18.2204C33.4286 18.0485 33.2617 17.9239 33.0673 17.8729C32.8729 17.822 32.6663 17.8487 32.4912 17.9475C30.6846 19.0418 29.179 20.2434 27.9203 21.5027C28.2419 19.6098 29.2178 17.8622 30.7141 16.6002C31.6466 15.8144 32.7426 15.2465 33.9223 14.9378C35.102 14.6291 36.3357 14.5874 37.5335 14.8158C37.5766 17.2757 36.5125 19.643 34.6225 21.2362Z" fill="black"/>
<mask id="path-3-outside-1_309_426" maskUnits="userSpaceOnUse" x="63" y="16" width="156" height="28" fill="black">
<rect fill="white" x="63" y="16" width="156" height="28"/>
<path d="M63.1 38V17H77.8V20.3H66.55V26.3H75.4V29.6H66.55V38H63.1ZM80.6441 36.02C79.1441 34.48 78.3941 32.59 78.3941 30.35C78.3941 28.11 79.1441 26.23 80.6441 24.71C82.1641 23.17 84.0141 22.4 86.1941 22.4C88.3741 22.4 90.2141 23.17 91.7141 24.71C93.2341 26.23 93.9941 28.11 93.9941 30.35V31.4H81.5441C81.7841 32.66 82.3341 33.65 83.1941 34.37C84.0541 35.09 85.0541 35.45 86.1941 35.45C87.5941 35.45 88.7141 35.1 89.5541 34.4C89.9341 34.12 90.2641 33.77 90.5441 33.35H93.8441C93.4241 34.33 92.8941 35.16 92.2541 35.84C90.6141 37.48 88.5941 38.3 86.1941 38.3C84.0141 38.3 82.1641 37.54 80.6441 36.02ZM81.6941 28.85H90.6941C90.5141 27.85 90.0341 27 89.2541 26.3C88.4941 25.6 87.4741 25.25 86.1941 25.25C85.1141 25.25 84.1541 25.58 83.3141 26.24C82.4741 26.88 81.9341 27.75 81.6941 28.85ZM96.6965 38V22.7H99.8465V24.95H99.9965C100.216 24.53 100.536 24.13 100.956 23.75C101.876 22.95 102.956 22.55 104.196 22.55H105.996V25.55H104.046C102.826 25.55 101.816 25.94 101.016 26.72C100.236 27.48 99.8465 28.49 99.8465 29.75V38H96.6965ZM108.386 38V22.7H111.536V24.8H111.686C111.946 24.36 112.286 23.96 112.706 23.6C113.666 22.8 114.826 22.4 116.186 22.4C117.806 22.4 119.116 22.88 120.116 23.84C120.536 24.24 120.876 24.71 121.136 25.25H121.286C121.566 24.73 121.956 24.26 122.456 23.84C123.536 22.88 124.896 22.4 126.536 22.4C128.316 22.4 129.706 22.96 130.706 24.08C131.726 25.18 132.236 26.77 132.236 28.85V38H129.086V29C129.086 26.5 127.986 25.25 125.786 25.25C124.726 25.25 123.806 25.67 123.026 26.51C122.266 27.33 121.886 28.36 121.886 29.6V38H118.736V29C118.736 26.5 117.636 25.25 115.436 25.25C114.376 25.25 113.456 25.67 112.676 26.51C111.916 27.33 111.536 28.36 111.536 29.6V38H108.386ZM137.041 36.02C135.541 34.48 134.791 32.59 134.791 30.35C134.791 28.11 135.541 26.23 137.041 24.71C138.561 23.17 140.411 22.4 142.591 22.4C144.771 22.4 146.611 23.17 148.111 24.71C149.631 26.23 150.391 28.11 150.391 30.35V31.4H137.941C138.181 32.66 138.731 33.65 139.591 34.37C140.451 35.09 141.451 35.45 142.591 35.45C143.991 35.45 145.111 35.1 145.951 34.4C146.331 34.12 146.661 33.77 146.941 33.35H150.241C149.821 34.33 149.291 35.16 148.651 35.84C147.011 37.48 144.991 38.3 142.591 38.3C140.411 38.3 138.561 37.54 137.041 36.02ZM138.091 28.85H147.091C146.911 27.85 146.431 27 145.651 26.3C144.891 25.6 143.871 25.25 142.591 25.25C141.511 25.25 140.551 25.58 139.711 26.24C138.871 26.88 138.331 27.75 138.091 28.85ZM153.093 38V22.7H156.243V24.95H156.393C156.613 24.53 156.933 24.13 157.353 23.75C158.273 22.95 159.353 22.55 160.593 22.55H162.393V25.55H160.443C159.223 25.55 158.213 25.94 157.413 26.72C156.633 27.48 156.243 28.49 156.243 29.75V38H153.093ZM163.432 38L168.832 17H177.382L182.932 38H179.332L177.892 32.6H168.232L166.882 38H163.432ZM169.132 29.3H177.052L174.682 20.3H171.382L169.132 29.3ZM185.173 43.7V22.7H188.323V24.65H188.473C188.833 24.23 189.243 23.86 189.703 23.54C190.783 22.78 191.973 22.4 193.273 22.4C195.333 22.4 197.043 23.14 198.403 24.62C199.783 26.08 200.473 27.99 200.473 30.35C200.473 32.71 199.783 34.63 198.403 36.11C197.043 37.57 195.333 38.3 193.273 38.3C191.953 38.3 190.763 37.93 189.703 37.19C189.223 36.85 188.813 36.47 188.473 36.05H188.323V43.7H185.173ZM189.493 26.6C188.713 27.48 188.323 28.73 188.323 30.35C188.323 31.97 188.713 33.23 189.493 34.13C190.293 35.01 191.353 35.45 192.673 35.45C194.073 35.45 195.173 35.01 195.973 34.13C196.773 33.25 197.173 31.99 197.173 30.35C197.173 28.71 196.773 27.45 195.973 26.57C195.173 25.69 194.073 25.25 192.673 25.25C191.353 25.25 190.293 25.7 189.493 26.6ZM203.161 43.7V22.7H206.311V24.65H206.461C206.821 24.23 207.231 23.86 207.691 23.54C208.771 22.78 209.961 22.4 211.261 22.4C213.321 22.4 215.031 23.14 216.391 24.62C217.771 26.08 218.461 27.99 218.461 30.35C218.461 32.71 217.771 34.63 216.391 36.11C215.031 37.57 213.321 38.3 211.261 38.3C209.941 38.3 208.751 37.93 207.691 37.19C207.211 36.85 206.801 36.47 206.461 36.05H206.311V43.7H203.161ZM207.481 26.6C206.701 27.48 206.311 28.73 206.311 30.35C206.311 31.97 206.701 33.23 207.481 34.13C208.281 35.01 209.341 35.45 210.661 35.45C212.061 35.45 213.161 35.01 213.961 34.13C214.761 33.25 215.161 31.99 215.161 30.35C215.161 28.71 214.761 27.45 213.961 26.57C213.161 25.69 212.061 25.25 210.661 25.25C209.341 25.25 208.281 25.7 207.481 26.6Z"/>
</mask>
<path d="M63.1 38V17H77.8V20.3H66.55V26.3H75.4V29.6H66.55V38H63.1ZM80.6441 36.02C79.1441 34.48 78.3941 32.59 78.3941 30.35C78.3941 28.11 79.1441 26.23 80.6441 24.71C82.1641 23.17 84.0141 22.4 86.1941 22.4C88.3741 22.4 90.2141 23.17 91.7141 24.71C93.2341 26.23 93.9941 28.11 93.9941 30.35V31.4H81.5441C81.7841 32.66 82.3341 33.65 83.1941 34.37C84.0541 35.09 85.0541 35.45 86.1941 35.45C87.5941 35.45 88.7141 35.1 89.5541 34.4C89.9341 34.12 90.2641 33.77 90.5441 33.35H93.8441C93.4241 34.33 92.8941 35.16 92.2541 35.84C90.6141 37.48 88.5941 38.3 86.1941 38.3C84.0141 38.3 82.1641 37.54 80.6441 36.02ZM81.6941 28.85H90.6941C90.5141 27.85 90.0341 27 89.2541 26.3C88.4941 25.6 87.4741 25.25 86.1941 25.25C85.1141 25.25 84.1541 25.58 83.3141 26.24C82.4741 26.88 81.9341 27.75 81.6941 28.85ZM96.6965 38V22.7H99.8465V24.95H99.9965C100.216 24.53 100.536 24.13 100.956 23.75C101.876 22.95 102.956 22.55 104.196 22.55H105.996V25.55H104.046C102.826 25.55 101.816 25.94 101.016 26.72C100.236 27.48 99.8465 28.49 99.8465 29.75V38H96.6965ZM108.386 38V22.7H111.536V24.8H111.686C111.946 24.36 112.286 23.96 112.706 23.6C113.666 22.8 114.826 22.4 116.186 22.4C117.806 22.4 119.116 22.88 120.116 23.84C120.536 24.24 120.876 24.71 121.136 25.25H121.286C121.566 24.73 121.956 24.26 122.456 23.84C123.536 22.88 124.896 22.4 126.536 22.4C128.316 22.4 129.706 22.96 130.706 24.08C131.726 25.18 132.236 26.77 132.236 28.85V38H129.086V29C129.086 26.5 127.986 25.25 125.786 25.25C124.726 25.25 123.806 25.67 123.026 26.51C122.266 27.33 121.886 28.36 121.886 29.6V38H118.736V29C118.736 26.5 117.636 25.25 115.436 25.25C114.376 25.25 113.456 25.67 112.676 26.51C111.916 27.33 111.536 28.36 111.536 29.6V38H108.386ZM137.041 36.02C135.541 34.48 134.791 32.59 134.791 30.35C134.791 28.11 135.541 26.23 137.041 24.71C138.561 23.17 140.411 22.4 142.591 22.4C144.771 22.4 146.611 23.17 148.111 24.71C149.631 26.23 150.391 28.11 150.391 30.35V31.4H137.941C138.181 32.66 138.731 33.65 139.591 34.37C140.451 35.09 141.451 35.45 142.591 35.45C143.991 35.45 145.111 35.1 145.951 34.4C146.331 34.12 146.661 33.77 146.941 33.35H150.241C149.821 34.33 149.291 35.16 148.651 35.84C147.011 37.48 144.991 38.3 142.591 38.3C140.411 38.3 138.561 37.54 137.041 36.02ZM138.091 28.85H147.091C146.911 27.85 146.431 27 145.651 26.3C144.891 25.6 143.871 25.25 142.591 25.25C141.511 25.25 140.551 25.58 139.711 26.24C138.871 26.88 138.331 27.75 138.091 28.85ZM153.093 38V22.7H156.243V24.95H156.393C156.613 24.53 156.933 24.13 157.353 23.75C158.273 22.95 159.353 22.55 160.593 22.55H162.393V25.55H160.443C159.223 25.55 158.213 25.94 157.413 26.72C156.633 27.48 156.243 28.49 156.243 29.75V38H153.093ZM163.432 38L168.832 17H177.382L182.932 38H179.332L177.892 32.6H168.232L166.882 38H163.432ZM169.132 29.3H177.052L174.682 20.3H171.382L169.132 29.3ZM185.173 43.7V22.7H188.323V24.65H188.473C188.833 24.23 189.243 23.86 189.703 23.54C190.783 22.78 191.973 22.4 193.273 22.4C195.333 22.4 197.043 23.14 198.403 24.62C199.783 26.08 200.473 27.99 200.473 30.35C200.473 32.71 199.783 34.63 198.403 36.11C197.043 37.57 195.333 38.3 193.273 38.3C191.953 38.3 190.763 37.93 189.703 37.19C189.223 36.85 188.813 36.47 188.473 36.05H188.323V43.7H185.173ZM189.493 26.6C188.713 27.48 188.323 28.73 188.323 30.35C188.323 31.97 188.713 33.23 189.493 34.13C190.293 35.01 191.353 35.45 192.673 35.45C194.073 35.45 195.173 35.01 195.973 34.13C196.773 33.25 197.173 31.99 197.173 30.35C197.173 28.71 196.773 27.45 195.973 26.57C195.173 25.69 194.073 25.25 192.673 25.25C191.353 25.25 190.293 25.7 189.493 26.6ZM203.161 43.7V22.7H206.311V24.65H206.461C206.821 24.23 207.231 23.86 207.691 23.54C208.771 22.78 209.961 22.4 211.261 22.4C213.321 22.4 215.031 23.14 216.391 24.62C217.771 26.08 218.461 27.99 218.461 30.35C218.461 32.71 217.771 34.63 216.391 36.11C215.031 37.57 213.321 38.3 211.261 38.3C209.941 38.3 208.751 37.93 207.691 37.19C207.211 36.85 206.801 36.47 206.461 36.05H206.311V43.7H203.161ZM207.481 26.6C206.701 27.48 206.311 28.73 206.311 30.35C206.311 31.97 206.701 33.23 207.481 34.13C208.281 35.01 209.341 35.45 210.661 35.45C212.061 35.45 213.161 35.01 213.961 34.13C214.761 33.25 215.161 31.99 215.161 30.35C215.161 28.71 214.761 27.45 213.961 26.57C213.161 25.69 212.061 25.25 210.661 25.25C209.341 25.25 208.281 25.7 207.481 26.6Z" fill="black"/>
<path d="M63.1 38H63V38.1H63.1V38ZM63.1 17V16.9H63V17H63.1ZM77.8 17H77.9V16.9H77.8V17ZM77.8 20.3V20.4H77.9V20.3H77.8ZM66.55 20.3V20.2H66.45V20.3H66.55ZM66.55 26.3H66.45V26.4H66.55V26.3ZM75.4 26.3H75.5V26.2H75.4V26.3ZM75.4 29.6V29.7H75.5V29.6H75.4ZM66.55 29.6V29.5H66.45V29.6H66.55ZM66.55 38V38.1H66.65V38H66.55ZM63.2 38V17H63V38H63.2ZM63.1 17.1H77.8V16.9H63.1V17.1ZM77.7 17V20.3H77.9V17H77.7ZM77.8 20.2H66.55V20.4H77.8V20.2ZM66.45 20.3V26.3H66.65V20.3H66.45ZM66.55 26.4H75.4V26.2H66.55V26.4ZM75.3 26.3V29.6H75.5V26.3H75.3ZM75.4 29.5H66.55V29.7H75.4V29.5ZM66.45 29.6V38H66.65V29.6H66.45ZM66.55 37.9H63.1V38.1H66.55V37.9ZM80.6441 36.02L80.5725 36.0898L80.5734 36.0907L80.6441 36.02ZM80.6441 24.71L80.573 24.6398L80.573 24.6398L80.6441 24.71ZM91.7141 24.71L91.6425 24.7798L91.6434 24.7807L91.7141 24.71ZM93.9941 31.4V31.5H94.0941V31.4H93.9941ZM81.5441 31.4V31.3H81.4233L81.4459 31.4187L81.5441 31.4ZM83.1941 34.37L83.2583 34.2933L83.2583 34.2933L83.1941 34.37ZM89.5541 34.4L89.4947 34.3194L89.4901 34.3232L89.5541 34.4ZM90.5441 33.35V33.25H90.4906L90.4609 33.2945L90.5441 33.35ZM93.8441 33.35L93.9361 33.3894L93.9958 33.25H93.8441V33.35ZM92.2541 35.84L92.3249 35.9107L92.327 35.9085L92.2541 35.84ZM81.6941 28.85L81.5964 28.8287L81.57 28.95H81.6941V28.85ZM90.6941 28.85V28.95H90.8137L90.7926 28.8323L90.6941 28.85ZM89.2541 26.3L89.1864 26.3736L89.1874 26.3744L89.2541 26.3ZM83.3141 26.24L83.3748 26.3196L83.3759 26.3186L83.3141 26.24ZM80.7158 35.9502C79.2348 34.4298 78.4941 32.5651 78.4941 30.35H78.2941C78.2941 32.6149 79.0535 34.5302 80.5725 36.0898L80.7158 35.9502ZM78.4941 30.35C78.4941 28.1349 79.2348 26.2805 80.7153 24.7802L80.573 24.6398C79.0535 26.1795 78.2941 28.0851 78.2941 30.35H78.4941ZM80.7153 24.7802C82.2164 23.2594 84.0407 22.5 86.1941 22.5V22.3C83.9876 22.3 82.1119 23.0806 80.573 24.6398L80.7153 24.7802ZM86.1941 22.5C88.3476 22.5 90.1616 23.2594 91.6425 24.7798L91.7858 24.6402C90.2667 23.0806 88.4007 22.3 86.1941 22.3V22.5ZM91.6434 24.7807C93.1438 26.2811 93.8941 28.1353 93.8941 30.35H94.0941C94.0941 28.0847 93.3245 26.1789 91.7849 24.6393L91.6434 24.7807ZM93.8941 30.35V31.4H94.0941V30.35H93.8941ZM93.9941 31.3H81.5441V31.5H93.9941V31.3ZM81.4459 31.4187C81.6896 32.6979 82.2497 33.7098 83.1299 34.4467L83.2583 34.2933C82.4185 33.5902 81.8787 32.6221 81.6424 31.3813L81.4459 31.4187ZM83.1299 34.4467C84.0083 35.182 85.0311 35.55 86.1941 35.55V35.35C85.0772 35.35 84.1 34.998 83.2583 34.2933L83.1299 34.4467ZM86.1941 35.55C87.6108 35.55 88.7556 35.1956 89.6182 34.4768L89.4901 34.3232C88.6726 35.0044 87.5774 35.35 86.1941 35.35V35.55ZM89.6135 34.4805C90.0034 34.1931 90.3413 33.8345 90.6273 33.4055L90.4609 33.2945C90.1869 33.7055 89.8648 34.0469 89.4948 34.3195L89.6135 34.4805ZM90.5441 33.45H93.8441V33.25H90.5441V33.45ZM93.7522 33.3106C93.3362 34.2814 92.8122 35.1011 92.1813 35.7715L92.327 35.9085C92.976 35.2189 93.5121 34.3786 93.9361 33.3894L93.7522 33.3106ZM92.1834 35.7693C90.5629 37.3898 88.5687 38.2 86.1941 38.2V38.4C88.6196 38.4 90.6654 37.5702 92.3249 35.9107L92.1834 35.7693ZM86.1941 38.2C84.0402 38.2 82.2158 37.4502 80.7149 35.9493L80.5734 36.0907C82.1125 37.6298 83.988 38.4 86.1941 38.4V38.2ZM81.6941 28.95H90.6941V28.75H81.6941V28.95ZM90.7926 28.8323C90.6085 27.8097 90.1169 26.9399 89.3209 26.2256L89.1874 26.3744C89.9514 27.0601 90.4198 27.8903 90.5957 28.8677L90.7926 28.8323ZM89.3219 26.2264C88.5393 25.5056 87.493 25.15 86.1941 25.15V25.35C87.4553 25.35 88.449 25.6944 89.1864 26.3736L89.3219 26.2264ZM86.1941 25.15C85.092 25.15 84.1102 25.4874 83.2524 26.1614L83.3759 26.3186C84.1981 25.6726 85.1363 25.35 86.1941 25.35V25.15ZM83.2535 26.1605C82.3933 26.8158 81.8411 27.7071 81.5964 28.8287L81.7918 28.8713C82.0271 27.7929 82.5549 26.9442 83.3747 26.3195L83.2535 26.1605ZM96.6965 38H96.5965V38.1H96.6965V38ZM96.6965 22.7V22.6H96.5965V22.7H96.6965ZM99.8465 22.7H99.9465V22.6H99.8465V22.7ZM99.8465 24.95H99.7465V25.05H99.8465V24.95ZM99.9965 24.95V25.05H100.057L100.085 24.9964L99.9965 24.95ZM100.956 23.75L100.891 23.6745L100.889 23.6758L100.956 23.75ZM105.996 22.55H106.096V22.45H105.996V22.55ZM105.996 25.55V25.65H106.096V25.55H105.996ZM101.016 26.72L101.086 26.7916L101.086 26.7916L101.016 26.72ZM99.8465 38V38.1H99.9465V38H99.8465ZM96.7965 38V22.7H96.5965V38H96.7965ZM96.6965 22.8H99.8465V22.6H96.6965V22.8ZM99.7465 22.7V24.95H99.9465V22.7H99.7465ZM99.8465 25.05H99.9965V24.85H99.8465V25.05ZM100.085 24.9964C100.299 24.5887 100.611 24.1977 101.024 23.8242L100.889 23.6758C100.462 24.0623 100.134 24.4713 99.9079 24.9036L100.085 24.9964ZM101.022 23.8255C101.924 23.0416 102.98 22.65 104.196 22.65V22.45C102.933 22.45 101.829 22.8584 100.891 23.6745L101.022 23.8255ZM104.196 22.65H105.996V22.45H104.196V22.65ZM105.896 22.55V25.55H106.096V22.55H105.896ZM105.996 25.45H104.046V25.65H105.996V25.45ZM104.046 25.45C102.803 25.45 101.767 25.8484 100.947 26.6484L101.086 26.7916C101.866 26.0316 102.85 25.65 104.046 25.65V25.45ZM100.947 26.6484C100.144 27.4302 99.7465 28.4676 99.7465 29.75H99.9465C99.9465 28.5124 100.329 27.5298 101.086 26.7916L100.947 26.6484ZM99.7465 29.75V38H99.9465V29.75H99.7465ZM99.8465 37.9H96.6965V38.1H99.8465V37.9ZM108.386 38H108.286V38.1H108.386V38ZM108.386 22.7V22.6H108.286V22.7H108.386ZM111.536 22.7H111.636V22.6H111.536V22.7ZM111.536 24.8H111.436V24.9H111.536V24.8ZM111.686 24.8V24.9H111.743L111.772 24.8509L111.686 24.8ZM112.706 23.6L112.642 23.5232L112.641 23.5241L112.706 23.6ZM120.116 23.84L120.047 23.9121L120.047 23.9124L120.116 23.84ZM121.136 25.25L121.046 25.2934L121.073 25.35H121.136V25.25ZM121.286 25.25V25.35H121.346L121.374 25.2974L121.286 25.25ZM122.456 23.84L122.52 23.9166L122.522 23.9147L122.456 23.84ZM130.706 24.08L130.631 24.1466L130.633 24.148L130.706 24.08ZM132.236 38V38.1H132.336V38H132.236ZM129.086 38H128.986V38.1H129.086V38ZM123.026 26.51L122.953 26.442L122.953 26.442L123.026 26.51ZM121.886 38V38.1H121.986V38H121.886ZM118.736 38H118.636V38.1H118.736V38ZM112.676 26.51L112.603 26.442L112.603 26.442L112.676 26.51ZM111.536 38V38.1H111.636V38H111.536ZM108.486 38V22.7H108.286V38H108.486ZM108.386 22.8H111.536V22.6H108.386V22.8ZM111.436 22.7V24.8H111.636V22.7H111.436ZM111.536 24.9H111.686V24.7H111.536V24.9ZM111.772 24.8509C112.026 24.4211 112.359 24.0294 112.771 23.6759L112.641 23.5241C112.213 23.8906 111.866 24.2989 111.6 24.7491L111.772 24.8509ZM112.77 23.6768C113.71 22.8932 114.847 22.5 116.186 22.5V22.3C114.805 22.3 113.622 22.7068 112.642 23.5232L112.77 23.6768ZM116.186 22.5C117.785 22.5 119.068 22.973 120.047 23.9121L120.185 23.7679C119.163 22.787 117.827 22.3 116.186 22.3V22.5ZM120.047 23.9124C120.458 24.3038 120.791 24.7639 121.046 25.2934L121.226 25.2066C120.961 24.6561 120.614 24.1762 120.185 23.7676L120.047 23.9124ZM121.136 25.35H121.286V25.15H121.136V25.35ZM121.374 25.2974C121.647 24.7897 122.029 24.3293 122.52 23.9166L122.392 23.7634C121.883 24.1907 121.484 24.6703 121.198 25.2026L121.374 25.2974ZM122.522 23.9147C123.582 22.9732 124.917 22.5 126.536 22.5V22.3C124.875 22.3 123.49 22.7868 122.39 23.7653L122.522 23.9147ZM126.536 22.5C128.293 22.5 129.654 23.0518 130.631 24.1466L130.781 24.0134C129.758 22.8682 128.339 22.3 126.536 22.3V22.5ZM130.633 24.148C131.63 25.2234 132.136 26.7854 132.136 28.85H132.336C132.336 26.7546 131.822 25.1366 130.779 24.012L130.633 24.148ZM132.136 28.85V38H132.336V28.85H132.136ZM132.236 37.9H129.086V38.1H132.236V37.9ZM129.186 38V29H128.986V38H129.186ZM129.186 29C129.186 27.7375 128.908 26.772 128.336 26.1214C127.761 25.4685 126.905 25.15 125.786 25.15V25.35C126.867 25.35 127.66 25.6565 128.186 26.2536C128.713 26.853 128.986 27.7625 128.986 29H129.186ZM125.786 25.15C124.696 25.15 123.75 25.5834 122.953 26.442L123.099 26.578C123.862 25.7566 124.756 25.35 125.786 25.35V25.15ZM122.953 26.442C122.174 27.2826 121.786 28.3378 121.786 29.6H121.986C121.986 28.3822 122.358 27.3774 123.099 26.578L122.953 26.442ZM121.786 29.6V38H121.986V29.6H121.786ZM121.886 37.9H118.736V38.1H121.886V37.9ZM118.836 38V29H118.636V38H118.836ZM118.836 29C118.836 27.7375 118.558 26.772 117.986 26.1214C117.411 25.4685 116.555 25.15 115.436 25.15V25.35C116.517 25.35 117.31 25.6565 117.836 26.2536C118.363 26.853 118.636 27.7625 118.636 29H118.836ZM115.436 25.15C114.346 25.15 113.4 25.5834 112.603 26.442L112.749 26.578C113.512 25.7566 114.406 25.35 115.436 25.35V25.15ZM112.603 26.442C111.824 27.2826 111.436 28.3378 111.436 29.6H111.636C111.636 28.3822 112.008 27.3774 112.749 26.578L112.603 26.442ZM111.436 29.6V38H111.636V29.6H111.436ZM111.536 37.9H108.386V38.1H111.536V37.9ZM137.041 36.02L136.969 36.0898L136.97 36.0907L137.041 36.02ZM137.041 24.71L136.969 24.6398L136.969 24.6398L137.041 24.71ZM148.111 24.71L148.039 24.7798L148.04 24.7807L148.111 24.71ZM150.391 31.4V31.5H150.491V31.4H150.391ZM137.941 31.4V31.3H137.82L137.842 31.4187L137.941 31.4ZM139.591 34.37L139.655 34.2933L139.655 34.2933L139.591 34.37ZM145.951 34.4L145.891 34.3194L145.887 34.3232L145.951 34.4ZM146.941 33.35V33.25H146.887L146.857 33.2945L146.941 33.35ZM150.241 33.35L150.333 33.3894L150.392 33.25H150.241V33.35ZM148.651 35.84L148.721 35.9107L148.723 35.9085L148.651 35.84ZM138.091 28.85L137.993 28.8287L137.966 28.95H138.091V28.85ZM147.091 28.85V28.95H147.21L147.189 28.8323L147.091 28.85ZM145.651 26.3L145.583 26.3736L145.584 26.3744L145.651 26.3ZM139.711 26.24L139.771 26.3196L139.772 26.3186L139.711 26.24ZM137.112 35.9502C135.631 34.4298 134.891 32.5651 134.891 30.35H134.691C134.691 32.6149 135.45 34.5302 136.969 36.0898L137.112 35.9502ZM134.891 30.35C134.891 28.1349 135.631 26.2805 137.112 24.7802L136.969 24.6398C135.45 26.1795 134.691 28.0851 134.691 30.35H134.891ZM137.112 24.7802C138.613 23.2594 140.437 22.5 142.591 22.5V22.3C140.384 22.3 138.508 23.0806 136.969 24.6398L137.112 24.7802ZM142.591 22.5C144.744 22.5 146.558 23.2594 148.039 24.7798L148.182 24.6402C146.663 23.0806 144.797 22.3 142.591 22.3V22.5ZM148.04 24.7807C149.54 26.2811 150.291 28.1353 150.291 30.35H150.491C150.491 28.0847 149.721 26.1789 148.181 24.6393L148.04 24.7807ZM150.291 30.35V31.4H150.491V30.35H150.291ZM150.391 31.3H137.941V31.5H150.391V31.3ZM137.842 31.4187C138.086 32.6979 138.646 33.7098 139.526 34.4467L139.655 34.2933C138.815 33.5902 138.275 32.6221 138.039 31.3813L137.842 31.4187ZM139.526 34.4467C140.405 35.182 141.428 35.55 142.591 35.55V35.35C141.474 35.35 140.497 34.998 139.655 34.2933L139.526 34.4467ZM142.591 35.55C144.007 35.55 145.152 35.1956 146.015 34.4768L145.887 34.3232C145.069 35.0044 143.974 35.35 142.591 35.35V35.55ZM146.01 34.4805C146.4 34.1931 146.738 33.8345 147.024 33.4055L146.857 33.2945C146.583 33.7055 146.261 34.0469 145.891 34.3195L146.01 34.4805ZM146.941 33.45H150.241V33.25H146.941V33.45ZM150.149 33.3106C149.733 34.2814 149.209 35.1011 148.578 35.7715L148.723 35.9085C149.373 35.2189 149.909 34.3786 150.333 33.3894L150.149 33.3106ZM148.58 35.7693C146.959 37.3898 144.965 38.2 142.591 38.2V38.4C145.016 38.4 147.062 37.5702 148.721 35.9107L148.58 35.7693ZM142.591 38.2C140.437 38.2 138.612 37.4502 137.111 35.9493L136.97 36.0907C138.509 37.6298 140.385 38.4 142.591 38.4V38.2ZM138.091 28.95H147.091V28.75H138.091V28.95ZM147.189 28.8323C147.005 27.8097 146.513 26.9399 145.717 26.2256L145.584 26.3744C146.348 27.0601 146.816 27.8903 146.992 28.8677L147.189 28.8323ZM145.718 26.2264C144.936 25.5056 143.889 25.15 142.591 25.15V25.35C143.852 25.35 144.845 25.6944 145.583 26.3736L145.718 26.2264ZM142.591 25.15C141.488 25.15 140.507 25.4874 139.649 26.1614L139.772 26.3186C140.595 25.6726 141.533 25.35 142.591 25.35V25.15ZM139.65 26.1605C138.79 26.8158 138.238 27.7071 137.993 28.8287L138.188 28.8713C138.424 27.7929 138.951 26.9442 139.771 26.3195L139.65 26.1605ZM153.093 38H152.993V38.1H153.093V38ZM153.093 22.7V22.6H152.993V22.7H153.093ZM156.243 22.7H156.343V22.6H156.243V22.7ZM156.243 24.95H156.143V25.05H156.243V24.95ZM156.393 24.95V25.05H156.453L156.482 24.9964L156.393 24.95ZM157.353 23.75L157.287 23.6745L157.286 23.6758L157.353 23.75ZM162.393 22.55H162.493V22.45H162.393V22.55ZM162.393 25.55V25.65H162.493V25.55H162.393ZM157.413 26.72L157.483 26.7916L157.483 26.7916L157.413 26.72ZM156.243 38V38.1H156.343V38H156.243ZM153.193 38V22.7H152.993V38H153.193ZM153.093 22.8H156.243V22.6H153.093V22.8ZM156.143 22.7V24.95H156.343V22.7H156.143ZM156.243 25.05H156.393V24.85H156.243V25.05ZM156.482 24.9964C156.695 24.5887 157.007 24.1977 157.42 23.8242L157.286 23.6758C156.859 24.0623 156.531 24.4713 156.304 24.9036L156.482 24.9964ZM157.419 23.8255C158.32 23.0416 159.377 22.65 160.593 22.65V22.45C159.329 22.45 158.226 22.8584 157.287 23.6745L157.419 23.8255ZM160.593 22.65H162.393V22.45H160.593V22.65ZM162.293 22.55V25.55H162.493V22.55H162.293ZM162.393 25.45H160.443V25.65H162.393V25.45ZM160.443 25.45C159.2 25.45 158.164 25.8484 157.343 26.6484L157.483 26.7916C158.262 26.0316 159.246 25.65 160.443 25.65V25.45ZM157.343 26.6484C156.541 27.4302 156.143 28.4676 156.143 29.75H156.343C156.343 28.5124 156.725 27.5298 157.483 26.7916L157.343 26.6484ZM156.143 29.75V38H156.343V29.75H156.143ZM156.243 37.9H153.093V38.1H156.243V37.9ZM163.432 38L163.336 37.9751L163.303 38.1H163.432V38ZM168.832 17V16.9H168.755L168.736 16.9751L168.832 17ZM177.382 17L177.479 16.9744L177.459 16.9H177.382V17ZM182.932 38V38.1H183.062L183.029 37.9744L182.932 38ZM179.332 38L179.236 38.0258L179.256 38.1H179.332V38ZM177.892 32.6L177.989 32.5742L177.969 32.5H177.892V32.6ZM168.232 32.6V32.5H168.154L168.135 32.5757L168.232 32.6ZM166.882 38V38.1H166.96L166.979 38.0243L166.882 38ZM169.132 29.3L169.035 29.2757L169.004 29.4H169.132V29.3ZM177.052 29.3V29.4H177.182L177.149 29.2745L177.052 29.3ZM174.682 20.3L174.779 20.2745L174.759 20.2H174.682V20.3ZM171.382 20.3V20.2H171.304L171.285 20.2757L171.382 20.3ZM163.529 38.0249L168.929 17.0249L168.736 16.9751L163.336 37.9751L163.529 38.0249ZM168.832 17.1H177.382V16.9H168.832V17.1ZM177.286 17.0255L182.836 38.0256L183.029 37.9744L177.479 16.9744L177.286 17.0255ZM182.932 37.9H179.332V38.1H182.932V37.9ZM179.429 37.9742L177.989 32.5742L177.796 32.6258L179.236 38.0258L179.429 37.9742ZM177.892 32.5H168.232V32.7H177.892V32.5ZM168.135 32.5757L166.785 37.9757L166.979 38.0243L168.329 32.6243L168.135 32.5757ZM166.882 37.9H163.432V38.1H166.882V37.9ZM169.132 29.4H177.052V29.2H169.132V29.4ZM177.149 29.2745L174.779 20.2745L174.586 20.3255L176.956 29.3255L177.149 29.2745ZM174.682 20.2H171.382V20.4H174.682V20.2ZM171.285 20.2757L169.035 29.2757L169.229 29.3243L171.479 20.3243L171.285 20.2757ZM185.173 43.7H185.073V43.8H185.173V43.7ZM185.173 22.7V22.6H185.073V22.7H185.173ZM188.323 22.7H188.423V22.6H188.323V22.7ZM188.323 24.65H188.223V24.75H188.323V24.65ZM188.473 24.65V24.75H188.519L188.549 24.7151L188.473 24.65ZM189.703 23.54L189.76 23.6221L189.761 23.6218L189.703 23.54ZM198.403 24.62L198.329 24.6877L198.33 24.6887L198.403 24.62ZM198.403 36.11L198.33 36.0418L198.33 36.0418L198.403 36.11ZM189.703 37.19L189.645 37.2716L189.646 37.272L189.703 37.19ZM188.473 36.05L188.551 35.9871L188.521 35.95H188.473V36.05ZM188.323 36.05V35.95H188.223V36.05H188.323ZM188.323 43.7V43.8H188.423V43.7H188.323ZM189.493 26.6L189.418 26.5336L189.418 26.5337L189.493 26.6ZM189.493 34.13L189.417 34.1955L189.419 34.1973L189.493 34.13ZM195.973 34.13L195.899 34.0627L195.899 34.0627L195.973 34.13ZM185.273 43.7V22.7H185.073V43.7H185.273ZM185.173 22.8H188.323V22.6H185.173V22.8ZM188.223 22.7V24.65H188.423V22.7H188.223ZM188.323 24.75H188.473V24.55H188.323V24.75ZM188.549 24.7151C188.903 24.3016 189.307 23.9373 189.76 23.6221L189.646 23.4579C189.179 23.7827 188.763 24.1584 188.397 24.5849L188.549 24.7151ZM189.761 23.6218C190.824 22.8734 191.994 22.5 193.273 22.5V22.3C191.952 22.3 190.742 22.6866 189.645 23.4582L189.761 23.6218ZM193.273 22.5C195.306 22.5 196.989 23.2288 198.329 24.6877L198.477 24.5523C197.097 23.0512 195.36 22.3 193.273 22.3V22.5ZM198.33 24.6887C199.69 26.1269 200.373 28.0108 200.373 30.35H200.573C200.573 27.9692 199.876 26.0331 198.476 24.5513L198.33 24.6887ZM200.373 30.35C200.373 32.6892 199.69 34.5834 198.33 36.0418L198.476 36.1782C199.876 34.6766 200.573 32.7308 200.573 30.35H200.373ZM198.33 36.0418C196.989 37.4808 195.306 38.2 193.273 38.2V38.4C195.36 38.4 197.097 37.6592 198.476 36.1782L198.33 36.0418ZM193.273 38.2C191.973 38.2 190.803 37.836 189.76 37.108L189.646 37.272C190.723 38.024 191.933 38.4 193.273 38.4V38.2ZM189.761 37.1084C189.288 36.7732 188.885 36.3994 188.551 35.9871L188.395 36.1129C188.742 36.5406 189.158 36.9268 189.645 37.2716L189.761 37.1084ZM188.473 35.95H188.323V36.15H188.473V35.95ZM188.223 36.05V43.7H188.423V36.05H188.223ZM188.323 43.6H185.173V43.8H188.323V43.6ZM189.418 26.5337C188.617 27.4379 188.223 28.7148 188.223 30.35H188.423C188.423 28.7452 188.809 27.5221 189.568 26.6663L189.418 26.5337ZM188.223 30.35C188.223 31.9854 188.617 33.2717 189.417 34.1955L189.569 34.0645C188.809 33.1883 188.423 31.9546 188.423 30.35H188.223ZM189.419 34.1973C190.24 35.1005 191.328 35.55 192.673 35.55V35.35C191.378 35.35 190.346 34.9195 189.567 34.0627L189.419 34.1973ZM192.673 35.55C194.096 35.55 195.225 35.1018 196.047 34.1973L195.899 34.0627C195.121 34.9182 194.05 35.35 192.673 35.35V35.55ZM196.047 34.1973C196.869 33.2929 197.273 32.0054 197.273 30.35H197.073C197.073 31.9746 196.677 33.2071 195.899 34.0627L196.047 34.1973ZM197.273 30.35C197.273 28.6946 196.869 27.4071 196.047 26.5027L195.899 26.6373C196.677 27.4929 197.073 28.7254 197.073 30.35H197.273ZM196.047 26.5027C195.225 25.5982 194.096 25.15 192.673 25.15V25.35C194.05 25.35 195.121 25.7818 195.899 26.6373L196.047 26.5027ZM192.673 25.15C191.328 25.15 190.239 25.61 189.418 26.5336L189.568 26.6664C190.347 25.79 191.379 25.35 192.673 25.35V25.15ZM203.161 43.7H203.061V43.8H203.161V43.7ZM203.161 22.7V22.6H203.061V22.7H203.161ZM206.311 22.7H206.411V22.6H206.311V22.7ZM206.311 24.65H206.211V24.75H206.311V24.65ZM206.461 24.65V24.75H206.507L206.537 24.7151L206.461 24.65ZM207.691 23.54L207.748 23.6221L207.749 23.6218L207.691 23.54ZM216.391 24.62L216.318 24.6877L216.319 24.6887L216.391 24.62ZM216.391 36.11L216.318 36.0418L216.318 36.0418L216.391 36.11ZM207.691 37.19L207.634 37.2716L207.634 37.272L207.691 37.19ZM206.461 36.05L206.539 35.9871L206.509 35.95H206.461V36.05ZM206.311 36.05V35.95H206.211V36.05H206.311ZM206.311 43.7V43.8H206.411V43.7H206.311ZM207.481 26.6L207.407 26.5336L207.406 26.5337L207.481 26.6ZM207.481 34.13L207.406 34.1955L207.407 34.1973L207.481 34.13ZM213.961 34.13L213.887 34.0627L213.887 34.0627L213.961 34.13ZM203.261 43.7V22.7H203.061V43.7H203.261ZM203.161 22.8H206.311V22.6H203.161V22.8ZM206.211 22.7V24.65H206.411V22.7H206.211ZM206.311 24.75H206.461V24.55H206.311V24.75ZM206.537 24.7151C206.892 24.3016 207.295 23.9373 207.748 23.6221L207.634 23.4579C207.167 23.7827 206.751 24.1584 206.385 24.5849L206.537 24.7151ZM207.749 23.6218C208.812 22.8734 209.982 22.5 211.261 22.5V22.3C209.94 22.3 208.73 22.6866 207.634 23.4582L207.749 23.6218ZM211.261 22.5C213.294 22.5 214.977 23.2288 216.318 24.6877L216.465 24.5523C215.085 23.0512 213.349 22.3 211.261 22.3V22.5ZM216.319 24.6887C217.678 26.1269 218.361 28.0108 218.361 30.35H218.561C218.561 27.9692 217.865 26.0331 216.464 24.5513L216.319 24.6887ZM218.361 30.35C218.361 32.6892 217.678 34.5834 216.318 36.0418L216.464 36.1782C217.865 34.6766 218.561 32.7308 218.561 30.35H218.361ZM216.318 36.0418C214.978 37.4808 213.295 38.2 211.261 38.2V38.4C213.348 38.4 215.085 37.6592 216.465 36.1782L216.318 36.0418ZM211.261 38.2C209.961 38.2 208.791 37.836 207.749 37.108L207.634 37.272C208.711 38.024 209.921 38.4 211.261 38.4V38.2ZM207.749 37.1084C207.276 36.7732 206.873 36.3994 206.539 35.9871L206.384 36.1129C206.73 36.5406 207.147 36.9268 207.634 37.2716L207.749 37.1084ZM206.461 35.95H206.311V36.15H206.461V35.95ZM206.211 36.05V43.7H206.411V36.05H206.211ZM206.311 43.6H203.161V43.8H206.311V43.6ZM207.406 26.5337C206.605 27.4379 206.211 28.7148 206.211 30.35H206.411C206.411 28.7452 206.798 27.5221 207.556 26.6663L207.406 26.5337ZM206.211 30.35C206.211 31.9854 206.605 33.2717 207.406 34.1955L207.557 34.0645C206.798 33.1883 206.411 31.9546 206.411 30.35H206.211ZM207.407 34.1973C208.228 35.1005 209.317 35.55 210.661 35.55V35.35C209.366 35.35 208.334 34.9195 207.555 34.0627L207.407 34.1973ZM210.661 35.55C212.084 35.55 213.213 35.1018 214.035 34.1973L213.887 34.0627C213.11 34.9182 212.039 35.35 210.661 35.35V35.55ZM214.035 34.1973C214.857 33.2929 215.261 32.0054 215.261 30.35H215.061C215.061 31.9746 214.665 33.2071 213.887 34.0627L214.035 34.1973ZM215.261 30.35C215.261 28.6946 214.857 27.4071 214.035 26.5027L213.887 26.6373C214.665 27.4929 215.061 28.7254 215.061 30.35H215.261ZM214.035 26.5027C213.213 25.5982 212.084 25.15 210.661 25.15V25.35C212.039 25.35 213.11 25.7818 213.887 26.6373L214.035 26.5027ZM210.661 25.15C209.316 25.15 208.228 25.61 207.407 26.5336L207.556 26.6664C208.335 25.79 209.367 25.35 210.661 25.35V25.15Z" fill="black" mask="url(#path-3-outside-1_309_426)"/>
</svg>
